<?xml version="1.0" encoding="utf-8"?>
<!-- Generator: Adobe Illustrator 15.0.0, SVG Export Plug-In . SVG Version: 6.00 Build 0)  -->
<!DOCTYPE svg PUBLIC "-//W3C//DTD SVG 1.1//EN" "http://www.w3.org/Graphics/SVG/1.1/DTD/svg11.dtd">
<svg version="1.1" id="Ebene_1" xmlns="http://www.w3.org/2000/svg" xmlns:xlink="http://www.w3.org/1999/xlink" x="0px" y="0px"
	 width="612px" height="792px" viewBox="0 0 612 792" enable-background="new 0 0 612 792" xml:space="preserve">
<g id="location_black" transform="translate(-1621.209 -1811.882)">
	<path id="location" fill="#241C1C" d="M1926.987,2603.882L1926.987,2603.882l-183.923-294.353
		c-0.904-1.458-83.159-148.85-83.159-226.299c-0.262-71.78,27.887-140.749,78.299-191.848
		c102.187-104.381,269.644-106.16,374.025-3.973c1.338,1.31,2.662,2.634,3.973,3.973c50.428,51.089,78.579,120.064,78.3,191.848
		c0,77.422-82.256,224.828-83.16,226.299l-184.341,294.298L1926.987,2603.882z M1926.987,1868.473
		c-117.634,1.04-212.218,97.122-211.409,214.757c0,43.308,44.267,142.126,75.694,198.449l1.35,2.214l0.877,2.214l133.555,205.199
		l133.974-205.199l0.877-2.214l1.351-2.214c31.44-56.699,75.693-155.87,75.693-198.449
		C2139.607,1965.441,2044.774,1869.357,1926.987,1868.473z M1926.987,2207.888c-62.069,0.33-112.653-49.719-112.982-111.788
		c-0.33-62.069,49.719-112.653,111.788-112.982c62.068-0.33,112.652,49.72,112.982,111.788c0.158,29.777-11.508,58.4-32.436,79.583
		C1985.322,2195.643,1956.806,2207.646,1926.987,2207.888L1926.987,2207.888z M1926.987,2038.167
		c-31.25-0.514-57.001,24.402-57.516,55.653s24.402,57.001,55.652,57.516c31.251,0.514,57.001-24.402,57.516-55.653
		c0.005-0.308,0.008-0.616,0.008-0.924C1982.651,2063.864,1957.878,2038.676,1926.987,2038.167z"/>
</g>
</svg>
